<?xml version="1.0" encoding="UTF-8" standalone="no"?>
<svg
   width="900px"
   height="900px"
   viewBox="0 0 900 900"
   version="1.1"
   xml:space="preserve"
   id="SVGRoot"
   inkscape:version="1.3.2 (091e20e, 2023-11-25, custom)"
   sodipodi:docname="cuadro.svg"
   xmlns:inkscape="http://www.inkscape.org/namespaces/inkscape"
   xmlns:sodipodi="http://sodipodi.sourceforge.net/DTD/sodipodi-0.dtd"
   xmlns="http://www.w3.org/2000/svg"
   xmlns:svg="http://www.w3.org/2000/svg"><defs
   id="defs126" />
<sodipodi:namedview
   pagecolor="#a9a9a9"
   bordercolor="#292929"
   borderopacity="1"
   inkscape:showpageshadow="2"
   inkscape:pageopacity="0.0"
   inkscape:pagecheckerboard="0"
   inkscape:deskcolor="#232323"
   id="namedview1"
   inkscape:zoom="0.55666667"
   inkscape:cx="270.35928"
   inkscape:cy="462.57485"
   inkscape:window-width="1366"
   inkscape:window-height="697"
   inkscape:window-x="-8"
   inkscape:window-y="-8"
   inkscape:window-maximized="1"
   inkscape:current-layer="SVGRoot" />
<style
   type="text/css"
   id="style1">
g.prefab path {
  vector-effect:non-scaling-stroke;
  -inkscape-stroke:hairline;
  fill: none;
  fill-opacity: 1;
  stroke-opacity: 1;
  stroke: #00349c;
}
</style>
<g
   inkscape:label="Hive"
   style="fill: white; stroke-width: 2; stroke: black;"
   class="prefab"
   id="g126">
  <path
   d="m 458.94046,243.85936 h 40 l 20,34.64 -20,34.64 h -40 l -20,-34.64 z"
   id="path1" />
  <path
   d="m 218.94046,243.85936 h 40 l 20,34.64 -20,34.64 h -40 l -20,-34.64 z"
   id="path2" />
  <path
   d="m 338.94046,243.85936 h 40 l 20,34.64 -20,34.64 h -40 l -20,-34.64 z"
   id="path3" />
  <path
   d="m 578.94046,243.85936 h 40 l 20,34.64 -20,34.64 h -40 l -20,-34.64 z"
   id="path4" />
  <path
   d="m 698.94046,243.85936 h 40 l 20,34.64 -20,34.64 h -40 l -20,-34.64 z"
   id="path5" />
  <path
   d="m 518.94046,209.21936 h 40 l 20,34.64 -20,34.64 h -40 l -20,-34.64 z"
   id="path6" />
  <path
   d="m 278.94046,209.21936 h 40 l 20,34.64 -20,34.64 h -40 l -20,-34.64 z"
   id="path7" />
  <path
   d="m 398.94046,209.21936 h 40 l 20,34.64 -20,34.64 h -40 l -20,-34.64 z"
   id="path8" />
  <path
   d="m 638.94046,209.21936 h 40 l 20,34.64 -20,34.64 h -40 l -20,-34.64 z"
   id="path9" />
  <path
   d="m 758.94046,209.21936 h 40 l 20,34.64 -20,34.64 h -40 l -20,-34.64 z"
   id="path10" />
  <path
   d="m 518.94046,278.49936 h 40 l 20,34.64 -20,34.64 h -40 l -20,-34.64 z"
   id="path11" />
  <path
   d="m 278.94046,278.49936 h 40 l 20,34.64 -20,34.64 h -40 l -20,-34.64 z"
   id="path12" />
  <path
   d="m 398.94046,278.49936 h 40 l 20,34.64 -20,34.64 h -40 l -20,-34.64 z"
   id="path13" />
  <path
   d="m 638.94046,278.49936 h 40 l 20,34.64 -20,34.64 h -40 l -20,-34.64 z"
   id="path14" />
  <path
   d="m 758.94046,278.49936 h 40 l 20,34.64 -20,34.64 h -40 l -20,-34.64 z"
   id="path15" />
  <path
   d="m 458.94046,174.57936 h 40 l 20,34.64 -20,34.64 h -40 l -20,-34.64 z"
   id="path16" />
  <path
   d="m 218.94046,174.57936 h 40 l 20,34.64 -20,34.64 h -40 l -20,-34.64 z"
   id="path17" />
  <path
   d="m 338.94046,174.57936 h 40 l 20,34.64 -20,34.64 h -40 l -20,-34.64 z"
   id="path18" />
  <path
   d="m 578.94046,174.57936 h 40 l 20,34.64 -20,34.64 h -40 l -20,-34.64 z"
   id="path19" />
  <path
   d="m 698.94046,174.57936 h 40 l 20,34.64 -20,34.64 h -40 l -20,-34.64 z"
   id="path20" />
  <path
   d="m 458.94046,313.13936 h 40 l 20,34.64 -20,34.64 h -40 l -20,-34.64 z"
   id="path21" />
  <path
   d="m 218.94046,313.13936 h 40 l 20,34.64 -20,34.64 h -40 l -20,-34.64 z"
   id="path22" />
  <path
   d="m 338.94046,313.13936 h 40 l 20,34.64 -20,34.64 h -40 l -20,-34.64 z"
   id="path23" />
  <path
   d="m 578.94046,313.13936 h 40 l 20,34.64 -20,34.64 h -40 l -20,-34.64 z"
   id="path24" />
  <path
   d="m 698.94046,313.13936 h 40 l 20,34.64 -20,34.64 h -40 l -20,-34.64 z"
   id="path25" />
  <path
   d="m 518.94046,139.93936 h 40 l 20,34.64 -20,34.64 h -40 l -20,-34.64 z"
   id="path26" />
  <path
   d="m 278.94046,139.93936 h 40 l 20,34.64 -20,34.64 h -40 l -20,-34.64 z"
   id="path27" />
  <path
   d="m 398.94046,139.93936 h 40 l 20,34.64 -20,34.64 h -40 l -20,-34.64 z"
   id="path28" />
  <path
   d="m 638.94046,139.93936 h 40 l 20,34.64 -20,34.64 h -40 l -20,-34.64 z"
   id="path29" />
  <path
   d="m 758.94046,139.93936 h 40 l 20,34.64 -20,34.64 h -40 l -20,-34.64 z"
   id="path30" />
  <path
   d="m 518.94046,347.77936 h 40 l 20,34.64 -20,34.64 h -40 l -20,-34.64 z"
   id="path31" />
  <path
   d="m 278.94046,347.77936 h 40 l 20,34.64 -20,34.64 h -40 l -20,-34.64 z"
   id="path32" />
  <path
   d="m 398.94046,347.77936 h 40 l 20,34.64 -20,34.64 h -40 l -20,-34.64 z"
   id="path33" />
  <path
   d="m 638.94046,347.77936 h 40 l 20,34.64 -20,34.64 h -40 l -20,-34.64 z"
   id="path34" />
  <path
   d="m 758.94046,347.77936 h 40 l 20,34.64 -20,34.64 h -40 l -20,-34.64 z"
   id="path35" />
  <path
   d="m 458.94046,105.29936 h 40 l 20,34.64 -20,34.64 h -40 l -20,-34.64 z"
   id="path36" />
  <path
   d="m 218.94046,105.29936 h 40 l 20,34.64 -20,34.64 h -40 l -20,-34.64 z"
   id="path37" />
  <path
   d="m 338.94046,105.29936 h 40 l 20,34.64 -20,34.64 h -40 l -20,-34.64 z"
   id="path38" />
  <path
   d="m 578.94046,105.29936 h 40 l 20,34.64 -20,34.64 h -40 l -20,-34.64 z"
   id="path39" />
  <path
   d="m 698.94046,105.29936 h 40 l 20,34.64 -20,34.64 h -40 l -20,-34.64 z"
   id="path40" />
  <path
   d="m 458.94046,382.41936 h 40 l 20,34.64 -20,34.64 h -40 l -20,-34.64 z"
   id="path41" />
  <path
   d="m 218.94046,382.41936 h 40 l 20,34.64 -20,34.64 h -40 l -20,-34.64 z"
   id="path42" />
  <path
   d="m 338.94046,382.41936 h 40 l 20,34.64 -20,34.64 h -40 l -20,-34.64 z"
   id="path43" />
  <path
   d="m 578.94046,382.41936 h 40 l 20,34.64 -20,34.64 h -40 l -20,-34.64 z"
   id="path44" />
  <path
   d="m 698.94046,382.41936 h 40 l 20,34.64 -20,34.64 h -40 l -20,-34.64 z"
   id="path45" />
  <path
   d="m 518.94046,70.659355 h 40 l 20,34.64 -20,34.64 h -40 l -20,-34.64 z"
   id="path46" />
  <path
   d="m 278.94046,70.659355 h 40 l 20,34.64 -20,34.64 h -40 l -20,-34.64 z"
   id="path47" />
  <path
   d="m 398.94046,70.659355 h 40 l 20,34.64 -20,34.64 h -40 l -20,-34.64 z"
   id="path48" />
  <path
   d="m 638.94046,70.659355 h 40 l 20,34.64 -20,34.64 h -40 l -20,-34.64 z"
   id="path49" />
  <path
   d="m 758.94046,70.659355 h 40 l 20,34.64 -20,34.64 h -40 l -20,-34.64 z"
   id="path50" />
  <path
   d="m 518.94046,417.05936 h 40 l 20,34.64 -20,34.64 h -40 l -20,-34.64 z"
   id="path51" />
  <path
   d="m 278.94046,417.05936 h 40 l 20,34.64 -20,34.64 h -40 l -20,-34.64 z"
   id="path52" />
  <path
   d="m 398.94046,417.05936 h 40 l 20,34.64 -20,34.64 h -40 l -20,-34.64 z"
   id="path53" />
  <path
   d="m 638.94046,417.05936 h 40 l 20,34.64 -20,34.64 h -40 l -20,-34.64 z"
   id="path54" />
  <path
   d="m 758.94046,417.05936 h 40 l 20,34.64 -20,34.64 h -40 l -20,-34.64 z"
   id="path55" />
  <path
   d="m 458.94046,590.60153 h 40 l 20,34.64 -20,34.64 h -40 l -20,-34.64 z"
   id="path56" />
  <path
   d="m 218.94046,590.60153 h 40 l 20,34.64 -20,34.64 h -40 l -20,-34.64 z"
   id="path57" />
  <path
   d="m 338.94046,590.60153 h 40 l 20,34.64 -20,34.64 h -40 l -20,-34.64 z"
   id="path58" />
  <path
   d="m 578.94046,590.60153 h 40 l 20,34.64 -20,34.64 h -40 l -20,-34.64 z"
   id="path59" />
  <path
   d="m 698.94046,590.60153 h 40 l 20,34.64 -20,34.64 h -40 l -20,-34.64 z"
   id="path60" />
  <path
   d="m 518.94046,555.96153 h 40 l 20,34.64 -20,34.64 h -40 l -20,-34.64 z"
   id="path61" />
  <path
   d="m 278.94046,555.96153 h 40 l 20,34.64 -20,34.64 h -40 l -20,-34.64 z"
   id="path62" />
  <path
   d="m 398.94046,555.96153 h 40 l 20,34.64 -20,34.64 h -40 l -20,-34.64 z"
   id="path63" />
  <path
   d="m 638.94046,555.96153 h 40 l 20,34.64 -20,34.64 h -40 l -20,-34.64 z"
   id="path64" />
  <path
   d="m 758.94046,555.96153 h 40 l 20,34.64 -20,34.64 h -40 l -20,-34.64 z"
   id="path65" />
  <path
   d="m 518.94046,625.24153 h 40 l 20,34.64 -20,34.64 h -40 l -20,-34.64 z"
   id="path66" />
  <path
   d="m 278.94046,625.24153 h 40 l 20,34.64 -20,34.64 h -40 l -20,-34.64 z"
   id="path67" />
  <path
   d="m 398.94046,625.24153 h 40 l 20,34.64 -20,34.64 h -40 l -20,-34.64 z"
   id="path68" />
  <path
   d="m 638.94046,625.24153 h 40 l 20,34.64 -20,34.64 h -40 l -20,-34.64 z"
   id="path69" />
  <path
   d="m 758.94046,625.24153 h 40 l 20,34.64 -20,34.64 h -40 l -20,-34.64 z"
   id="path70" />
  <path
   d="m 458.94046,521.32153 h 40 l 20,34.64 -20,34.64 h -40 l -20,-34.64 z"
   id="path71" />
  <path
   d="m 218.94046,521.32153 h 40 l 20,34.64 -20,34.64 h -40 l -20,-34.64 z"
   id="path72" />
  <path
   d="m 338.94046,521.32153 h 40 l 20,34.64 -20,34.64 h -40 l -20,-34.64 z"
   id="path73" />
  <path
   d="m 578.94046,521.32153 h 40 l 20,34.64 -20,34.64 h -40 l -20,-34.64 z"
   id="path74" />
  <path
   d="m 698.94046,521.32153 h 40 l 20,34.64 -20,34.64 h -40 l -20,-34.64 z"
   id="path75" />
  <path
   d="m 458.94046,659.88153 h 40 l 20,34.64 -20,34.64 h -40 l -20,-34.64 z"
   id="path76" />
  <path
   d="m 218.94046,659.88153 h 40 l 20,34.64 -20,34.64 h -40 l -20,-34.64 z"
   id="path77" />
  <path
   d="m 338.94046,659.88153 h 40 l 20,34.64 -20,34.64 h -40 l -20,-34.64 z"
   id="path78" />
  <path
   d="m 578.94046,659.88153 h 40 l 20,34.64 -20,34.64 h -40 l -20,-34.64 z"
   id="path79" />
  <path
   d="m 698.94046,659.88153 h 40 l 20,34.64 -20,34.64 h -40 l -20,-34.64 z"
   id="path80" />
  <path
   d="m 518.94046,486.68153 h 40 l 20,34.64 -20,34.64 h -40 l -20,-34.64 z"
   id="path81" />
  <path
   d="m 278.94046,486.68153 h 40 l 20,34.64 -20,34.64 h -40 l -20,-34.64 z"
   id="path82" />
  <path
   d="m 398.94046,486.68153 h 40 l 20,34.64 -20,34.64 h -40 l -20,-34.64 z"
   id="path83" />
  <path
   d="m 638.94046,486.68153 h 40 l 20,34.64 -20,34.64 h -40 l -20,-34.64 z"
   id="path84" />
  <path
   d="m 758.94046,486.68153 h 40 l 20,34.64 -20,34.64 h -40 l -20,-34.64 z"
   id="path85" />
  <path
   d="m 518.94046,694.52153 h 40 l 20,34.64 -20,34.64 h -40 l -20,-34.64 z"
   id="path86" />
  <path
   d="m 278.94046,694.52153 h 40 l 20,34.64 -20,34.64 h -40 l -20,-34.64 z"
   id="path87" />
  <path
   d="m 398.94046,694.52153 h 40 l 20,34.64 -20,34.64 h -40 l -20,-34.64 z"
   id="path88" />
  <path
   d="m 638.94046,694.52153 h 40 l 20,34.64 -20,34.64 h -40 l -20,-34.64 z"
   id="path89" />
  <path
   d="m 758.94046,694.52153 h 40 l 20,34.64 -20,34.64 h -40 l -20,-34.64 z"
   id="path90" />
  <path
   d="m 458.94046,452.04153 h 40 l 20,34.64 -20,34.64 h -40 l -20,-34.64 z"
   id="path91" />
  <path
   d="m 218.94046,452.04153 h 40 l 20,34.64 -20,34.64 h -40 l -20,-34.64 z"
   id="path92" />
  <path
   d="m 338.94046,452.04153 h 40 l 20,34.64 -20,34.64 h -40 l -20,-34.64 z"
   id="path93" />
  <path
   d="m 578.94046,452.04153 h 40 l 20,34.64 -20,34.64 h -40 l -20,-34.64 z"
   id="path94" />
  <path
   d="m 698.94046,452.04153 h 40 l 20,34.64 -20,34.64 h -40 l -20,-34.64 z"
   id="path95" />
  <path
   d="m 458.94046,729.16153 h 40 l 20,34.64 -20,34.64 h -40 l -20,-34.64 z"
   id="path96" />
  <path
   d="m 218.94046,729.16153 h 40 l 20,34.64 -20,34.64 h -40 l -20,-34.64 z"
   id="path97" />
  <path
   d="m 338.94046,729.16153 h 40 l 20,34.64 -20,34.64 h -40 l -20,-34.64 z"
   id="path98" />
  <path
   d="m 578.94046,729.16153 h 40 l 20,34.64 -20,34.64 h -40 l -20,-34.64 z"
   id="path99" />
  <path
   d="m 698.94046,729.16153 h 40 l 20,34.64 -20,34.64 h -40 l -20,-34.64 z"
   id="path100" />
  <path
   d="m 518.94046,763.80153 h 40 l 20,34.64 -20,34.64 h -40 l -20,-34.64 z"
   id="path101" />
  <path
   d="m 278.94046,763.80153 h 40 l 20,34.64 -20,34.64 h -40 l -20,-34.64 z"
   id="path102" />
  <path
   d="m 398.94046,763.80153 h 40 l 20,34.64 -20,34.64 h -40 l -20,-34.64 z"
   id="path103" />
  <path
   d="m 638.94046,763.80153 h 40 l 20,34.64 -20,34.64 h -40 l -20,-34.64 z"
   id="path104" />
  <path
   d="m 758.94046,763.80153 h 40 l 20,34.64 -20,34.64 h -40 l -20,-34.64 z"
   id="path105" />
  <path
   d="m 98.94046,243.85936 h 40 l 20,34.64 -20,34.64 h -40 l -20,-34.64 z"
   id="path106" />
  <path
   d="m 158.94046,209.21936 h 40 l 20,34.64 -20,34.64 h -40 l -20,-34.64 z"
   id="path107" />
  <path
   d="m 158.94046,278.49936 h 40 l 20,34.64 -20,34.64 h -40 l -20,-34.64 z"
   id="path108" />
  <path
   d="m 98.94046,174.57936 h 40 l 20,34.64 -20,34.64 h -40 l -20,-34.64 z"
   id="path109" />
  <path
   d="m 98.94046,313.13936 h 40 l 20,34.64 -20,34.64 h -40 l -20,-34.64 z"
   id="path110" />
  <path
   d="m 158.94046,139.93936 h 40 l 20,34.64 -20,34.64 h -40 l -20,-34.64 z"
   id="path111" />
  <path
   d="m 158.94046,347.77936 h 40 l 20,34.64 -20,34.64 h -40 l -20,-34.64 z"
   id="path112" />
  <path
   d="m 98.94046,105.29936 h 40 l 20,34.64 -20,34.64 h -40 l -20,-34.64 z"
   id="path113" />
  <path
   d="m 98.94046,382.41936 h 40 l 20,34.64 -20,34.64 h -40 l -20,-34.64 z"
   id="path114" />
  <path
   d="m 158.94046,70.659355 h 40 l 20,34.64 -20,34.64 h -40 l -20,-34.64 z"
   id="path115" />
  <path
   d="m 158.94046,417.05936 h 40 l 20,34.64 -20,34.64 h -40 l -20,-34.64 z"
   id="path116" />
  <path
   d="m 98.94046,590.60153 h 40 l 20,34.64 -20,34.64 h -40 l -20,-34.64 z"
   id="path117" />
  <path
   d="m 158.94046,555.96153 h 40 l 20,34.64 -20,34.64 h -40 l -20,-34.64 z"
   id="path118" />
  <path
   d="m 158.94046,625.24153 h 40 l 20,34.64 -20,34.64 h -40 l -20,-34.64 z"
   id="path119" />
  <path
   d="m 98.94046,521.32153 h 40 l 20,34.64 -20,34.64 h -40 l -20,-34.64 z"
   id="path120" />
  <path
   d="m 98.94046,659.88153 h 40 l 20,34.64 -20,34.64 h -40 l -20,-34.64 z"
   id="path121" />
  <path
   d="m 158.94046,486.68153 h 40 l 20,34.64 -20,34.64 h -40 l -20,-34.64 z"
   id="path122" />
  <path
   d="m 158.94046,694.52153 h 40 l 20,34.64 -20,34.64 h -40 l -20,-34.64 z"
   id="path123" />
  <path
   d="m 98.94046,452.04153 h 40 l 20,34.64 -20,34.64 h -40 l -20,-34.64 z"
   id="path124" />
  <path
   d="m 98.94046,729.16153 h 40 l 20,34.64 -20,34.64 h -40 l -20,-34.64 z"
   id="path125" />
  <path
   d="m 158.94046,763.80153 h 40 l 20,34.64 -20,34.64 h -40 l -20,-34.64 z"
   id="path126" />
</g>
<rect
   style="fill:#ffdd55"
   id="rect160"
   width="900.00006"
   height="891.01794"
   x="-3.5928147"
   y="8.9820356" /></svg>
